PathFileType	3	(X/Y/Z)	D:\Jess\PFP\Labelled\PA09\20250730\SRRun01.trc
DataRate	CameraRate	NumFrames	NumMarkers	Units	OrigDataRate	OrigDataStartFrame	OrigNumFrames
250.0	250.0	4	37	mm	250.0	36563	2501
Frame#	Time	C7			T10			CLAV			LSHO			RSHO			LASIS			RASIS			LPSIS			RPSIS			LILCR			RILCR			LGTR			LTHI			LLTHI			LLEP			LMEP			LPSH			LLSH			LDSH			LLMAL			LMMAL			LTOE			L5TH			LHEE			RGTR			RTHI			RLTHI			RLEP			RMEP			RPSH			RLSH			RDSH			RLMAL			RMMAL			RTOE			R5TH			RHEE			
		X1	Y1	Z1	X2	Y2	Z2	X3	Y3	Z3	X4	Y4	Z4	X5	Y5	Z5	X6	Y6	Z6	X7	Y7	Z7	X8	Y8	Z8	X9	Y9	Z9	X10	Y10	Z10	X11	Y11	Z11	X12	Y12	Z12	X13	Y13	Z13	X14	Y14	Z14	X15	Y15	Z15	X16	Y16	Z16	X17	Y17	Z17	X18	Y18	Z18	X19	Y19	Z19	X20	Y20	Z20	X21	Y21	Z21	X22	Y22	Z22	X23	Y23	Z23	X24	Y24	Z24	X25	Y25	Z25	X26	Y26	Z26	X27	Y27	Z27	X28	Y28	Z28	X29	Y29	Z29	X30	Y30	Z30	X31	Y31	Z31	X32	Y32	Z32	X33	Y33	Z33	X34	Y34	Z34	X35	Y35	Z35	X36	Y36	Z36	X37	Y37	Z37	

1564	146.248	1166.00548388148	1371.15089777573	-319.2062174297944	1061.543051230307	1143.586390061717	-344.9915166679675	1274.488101625705	1255.98950802117	-267.5487468768007	1271.601422074856	1345.543452234966	-449.0251188565048	1141.551443868019	1343.973327344652	-157.0234813471542	1182.549347778383	913.3313366409718	-428.5142957990601	1138.414398581744	933.7302167918926	-210.5679304389274	1022.282313968647	978.4995614040113	-356.7393295614426	1013.248302880496	977.1835322382209	-323.4828179725853	1159.092866581883	982.0598836624974	-454.9591244737099	1097.546441774426	990.0332560880012	-188.021424540238	1127.689827603144	813.5819000976503	-483.8731588494058	1129.162028662382	629.3446789273777	-431.3802554412246	1009.162675690987	580.2452721230998	-471.4832825276081	943.4838618431972	480.8878868520324	-455.5470865300559	nan	nan	nan	886.5576004318229	386.6745176657821	-422.2248632434614	771.0889019479627	439.3065441584994	-466.6134476865329	693.4125163554096	351.3577546088521	-422.8997434309844	575.7963122912528	372.8342748353181	-449.9222130824497	nan	nan	nan	563.2737127034217	220.8205585597195	-443.5706407174494	532.6480155867687	240.2225647352282	-479.8171813339096	535.0412249121807	439.0003853999849	-399.1558340545642	1086.855686228092	824.7243493525324	-162.5617433158462	1242.583468512226	702.5968873867884	-223.3642614905126	1191.493154496382	605.709906339921	-183.2774524812069	1228.118865908586	478.1944169136543	-212.5208009497549	nan	nan	nan	1292.254149334625	408.6534179073869	-269.5146497185278	1219.305486885577	286.7140204316626	-233.1999859708531	1281.193856489002	210.1063855661074	-292.5409748946178	1226.530880889271	91.78777896310679	-286.0100650394897	nan	nan	nan	1381.532844341217	82.10126395507601	-268.7667936071731	1353.981303345045	48.61210919170758	-233.1018943920917	1166.169217942125	69.53307845883815	-342.1897947241059	
1565	146.252	1165.776574243247	1367.614590081311	-318.4975395298189	1060.924978257932	1140.456535505061	-344.5913504777645	1274.450609256549	1251.843426916271	-267.5977449268371	1270.836080296164	1341.944174727082	-449.0817492357928	1141.485110575248	1339.837644913409	-156.1373857968368	1181.576459489002	909.8801062285164	-428.9497503260047	1138.172632930796	930.7873846222196	-210.403348063643	1021.375269919794	974.7965150137044	-356.6665313590053	1012.424940855151	973.539705780114	-323.4300890332285	1158.214960117377	978.2533018608109	-455.4225766099308	1097.273864031306	986.583424084948	-187.7586013887565	1127.582647096609	809.6723168282185	-483.9455665275827	1131.299035566693	626.2063331268289	-432.862600906569	1011.661933811793	575.4849718372826	-472.1399259278528	948.0749268649892	476.2600622955048	-456.6122806538219	nan	nan	nan	890.77142783055	382.9260810848774	-423.9305170448699	775.8732640156859	438.1141885225588	-467.3044301985987	696.9700145706422	351.428227164121	-424.1092728491156	579.6786196335316	375.6538567642361	-450.2397559716626	nan	nan	nan	564.9605001733869	223.9106191643234	-446.4220953479908	534.5100436245859	244.4121525294981	-482.184922453056	540.2330561961039	441.6217367988162	-398.0680651094951	1087.132957745161	821.7382415522871	-162.4827331559017	1243.704788783453	701.3069508782587	-224.0415951835116	1193.383190031073	604.1046317888339	-183.82736498791	1230.036741594379	476.6009793502517	-212.8630318565612	nan	nan	nan	1292.185925046239	406.1652669557657	-270.6664952964042	1216.541318870602	285.7074936235596	-233.9496235933136	1275.615407591712	207.7744790358487	-294.1245329950948	1216.538420261952	91.76901314863636	-287.4642429865992	nan	nan	nan	1371.600028096168	78.52284895922578	-269.812723960096	1342.91161294799	46.72540339323964	-233.3669468050765	1155.313554479552	70.19304605231177	-343.0632222063796	
1566	146.256	1165.591096530339	1364.179844921263	-317.7810682737208	1060.287879021533	1137.468540169319	-344.1635680344531	1274.431626674666	1247.752811051064	-267.6943393793151	1270.010867551799	1338.405542336009	-449.202929445149	1141.428200977735	1335.758144970433	-155.2388583158729	1180.478649188838	906.4964423760366	-429.3840634420158	1137.881335740413	927.9420818924031	-210.2351837531562	1020.389392364152	971.2267055217703	-356.5792511845632	1011.531342125486	970.0241719102675	-323.3680961576457	1157.195226077909	974.4979292823238	-455.9238533568688	1096.963589508324	983.2072478564841	-187.4652737110059	1127.424057324446	805.7879363374968	-483.9732122717485	1133.526429735523	623.2021758038247	-434.2023321138879	1014.375566219742	570.8041898439978	-472.8087093607882	952.8731185290083	471.6980339272807	-457.7119248935587	nan	nan	nan	895.3058248145778	379.2327981412307	-425.5846229024863	780.9532538524523	436.7939608945045	-467.9920473333628	700.9539171901361	351.3482575518917	-425.2754059206131	584.0319917023502	378.2076314268837	-450.4915795166986	nan	nan	nan	567.3085211913303	226.7921304389367	-449.298519075793	537.0487651237037	248.3709174254805	-484.5799803755853	545.7859615187575	443.8665958108307	-396.8915634515428	1087.335586939289	818.8813987543037	-162.3829894013402	1244.536826828027	699.9890894772448	-224.8769950967813	1195.085982339127	602.5560292503773	-184.2637048086071	1231.735318287147	475.0880065407669	-213.224956463703	nan	nan	nan	1291.797628962722	403.7755267781131	-271.8613207366655	1213.467052083012	284.8477665240465	-234.648976023842	1269.645795005678	205.6383204882098	-295.6305812356744	1206.2329893106	91.94800687646632	-288.8104970554575	nan	nan	nan	1361.270118158297	75.46893438039443	-270.7749539151735	1331.596530852253	45.26826857251119	-233.5985025380566	1144.207860634238	70.8588697040697	-343.8174567245816	
1567	146.26	1165.455956638101	1360.879887853395	-317.0568765623554	1059.631149512416	1134.646116887825	-343.7076311378215	1274.431146940798	1243.749956403436	-267.8400042699952	1269.130593712652	1334.955552310623	-449.3842872128203	1141.390315826147	1331.764156554487	-154.33112308471	1179.25961105269	903.2144810040627	-429.8132990088964	1137.543138365414	925.2178418086976	-210.0667791847867	1019.328384853344	967.8215746986963	-356.4780371890474	1010.572813201867	966.6682330521048	-323.2975147412763	1156.01957137079	970.8318598186183	-456.465403427737	1096.607249098169	979.9333415249703	-187.1431142498998	1127.205876575122	801.9643707030091	-483.9546826173373	1135.847466306146	620.355995021695	-435.3862378231743	1017.314300468991	566.2383627996868	-473.4815788547432	957.8907160169414	467.2246673595085	-458.8244684025111	nan	nan	nan	900.1644337717588	375.6137350871248	-427.1567673619285	786.3301008215402	435.3520116975714	-468.6700957015739	705.3585546299093	351.119188727619	-426.3858377886752	588.8460572081433	380.4822663999486	-450.6888383642162	nan	nan	nan	570.313827371074	229.4419047349566	-452.1722749146617	540.2669918269451	252.0658989102382	-486.9880582649665	551.6721974598828	445.7406330515926	-395.6672377395434	1087.456175718874	816.1778579697933	-162.2636382148374	1245.058453656736	698.6374963351319	-225.8495566015269	1196.546406888338	601.0527532348704	-184.5929760388841	1233.137035470527	473.632949028836	-213.6065488707942	nan	nan	nan	1291.037974655759	401.4683817931378	-273.0854234489358	1210.06413474508	284.1076409896394	-235.2929005042148	1263.297298809982	203.6892343549229	-297.0433471739142	1195.675020659307	92.29569330452948	-290.0340161440149	nan	nan	nan	1350.607317022231	72.93531915518716	-271.645394611982	1320.101332017746	44.21501785523804	-233.7979018623594	1132.917478147126	71.52056345034755	-344.4526987138057	
